<?xml version="1.0" encoding="UTF-8"?>
<svg id="Capa_1" xmlns="http://www.w3.org/2000/svg" version="1.1" viewBox="0 0 2000 2000">
  <!-- Generator: Adobe Illustrator 29.4.0, SVG Export Plug-In . SVG Version: 2.1.0 Build 152)  -->
  <defs>
    <style>
      .st0, .st1, .st2, .st3, .st4, .st5, .st6, .st7, .st8 {
        stroke-miterlimit: 10;
      }

      .st0, .st3, .st9, .st4, .st5, .st10, .st11 {
        fill: none;
      }

      .st0, .st4 {
        stroke: #231f20;
      }

      .st0, .st6, .st7 {
        stroke-width: 2px;
      }

      .st1, .st2, .st4 {
        stroke-width: 3px;
      }

      .st1, .st2, .st6, .st7, .st8 {
        stroke: #000;
      }

      .st1, .st7 {
        fill: #fff;
      }

      .st2, .st12 {
        fill: #ebebeb;
      }

      .st13 {
        fill: #f1f0f0;
      }

      .st14 {
        fill: #231f20;
      }

      .st3 {
        stroke: #babab8;
        stroke-width: .55px;
      }

      .st3, .st9, .st11 {
        stroke-linecap: round;
      }

      .st9 {
        stroke: #fef2e9;
      }

      .st9, .st11 {
        stroke-linejoin: round;
        stroke-width: .55px;
      }

      .st5 {
        stroke: #fff;
      }

      .st15 {
        fill: #9c9c9a;
      }

      .st16 {
        fill: #d7d5d5;
      }

      .st6 {
        fill: #e4e4e2;
      }

      .st17, .st8 {
        fill: #d7d7c9;
      }

      .st18 {
        fill: #f7f7f6;
      }

      .st19 {
        fill: #babab8;
        opacity: .83;
      }

      .st20 {
        fill: #dddedd;
      }

      .st11 {
        stroke: #351e3b;
      }

      .st21 {
        fill: #351e3b;
      }
    </style>
  </defs>
  <g>
    <g>
      <path class="st14" d="M1390.88,709.56c-5.68,38.24-17.73,76.29-35.38,112.93-9.07,18.95-19.67,37.55-31.68,55.62-30.23,45.45-69.35,87.5-115.52,123.41-93.41,72.55-207.9,116.62-307.9,152.2-13.95,4.96-27.98,9.87-41.98,14.79-93.1,32.67-189.37,66.49-275.72,116.89-78,45.6-180.07,125.01-225.51,245.45-.5,1.22-.95,2.48-1.41,3.74-7.51,20.59-12.81,41.63-15.97,62.75-4.46,29.59-4.77,59.28-1.11,87.95h-2.1c-3.7-29.09-3.36-59.28,1.26-89.29,3.2-20.93,8.5-41.79,15.94-62.14.23-.65.5-1.33.72-1.98,45.37-122.04,148.42-202.33,227.15-248.27,86.51-50.52,182.85-84.37,276.06-117.08,13.99-4.92,27.98-9.84,41.94-14.79,99.85-35.53,214.19-79.49,307.33-151.85,45.37-35.27,83.84-76.48,113.73-121.01,12.92-19.18,24.21-38.96,33.78-59.13,17.08-35.91,28.71-73.12,34.27-110.49,18.11-121.85-31.8-245.95-124.14-308.81-42.05-28.63-88.37-43.01-132.75-48.99-19.9-2.71-39.35-3.74-57.91-3.58h-.04c-38.58.23-73.16,5.38-98.63,10.71-79.03,16.55-154.83,49.07-228.1,80.52-17.69,7.59-35.99,15.44-54.06,22.95-90.7,37.71-188.76,72.06-291.35,68.51-51.85-1.79-102.44-14.87-146.21-37.78-47.2-24.71-84.03-59.93-106.48-101.91-7.36-13.76-13.27-28.33-17.73-43.62v-.04c-6.21-21.16-9.65-43.58-10.33-67.02-.5-15.9.27-32.22,2.36-48.91h2.1c-2.1,16.89-2.9,33.44-2.36,49.52.72,22.46,3.97,44,9.84,64.36,4.46,15.67,10.45,30.61,18,44.72,43.01,80.37,141.48,134.77,250.9,138.58,102.1,3.55,199.97-30.77,290.48-68.36,18.03-7.51,36.33-15.33,54.02-22.95,73.39-31.49,149.26-64.05,228.52-80.6,25.24-5.3,59.4-10.45,97.52-10.79,19.79-.19,40.68.88,61.95,3.89,44,6.21,89.78,20.7,131.46,49.07,92.99,63.29,143.24,188.22,125.05,310.83Z"/>
      <rect class="st14" x="101.2" y="289.48" width="49.32" height="49.32" transform="translate(219.38 -11.1) rotate(37.88)"/>
      <rect class="st14" x="1076.55" y="318.68" width="49.32" height="49.32" transform="translate(728.7 -748.35) rotate(53.84)"/>
      <rect class="st14" x="1312.12" y="824.85" width="49.32" height="49.32" transform="translate(1840.68 -652.06) rotate(76.12)"/>
      <rect class="st14" x="323.3" y="1539.5" width="49.32" height="49.32" transform="translate(1528.58 480.74) rotate(60)"/>
    </g>
    <g>
      <rect class="st14" x="1499.64" y="1622.46" width="49.32" height="49.32" transform="translate(-678.69 1218.95) rotate(-36.22)"/>
      <rect class="st14" x="1524.95" y="1073.46" width="49.32" height="49.32" transform="translate(2647.73 -451.49) rotate(90)"/>
      <path class="st14" d="M1881.4,1031.87v2.29c-27.79-13.34-58.06-22-89.14-24.82-76.21-6.94-156.43,19.6-218,71.6-4.96,4.16-9.8,8.5-14.49,13-9.76,9.34-18.57,18.99-26.42,28.82-12.62,15.9-22.65,32.33-30.04,49.22-15.06,34.47-21.24,75.11-18.87,124.25,2.36,48.99,12.62,97.91,22.53,145.22,6.6,31.42,13.42,63.94,17.88,96.23,3.66,26.61,5.34,51.7,4.99,75.3-.34,23.45-2.67,45.33-6.94,65.73v.04c-.46,2.21-.95,4.38-1.49,6.56h-2.14c.38-1.56.72-3.09,1.07-4.69v-.04c4.5-20.59,6.98-42.74,7.36-66.49v-.04c.42-23.79-1.22-49.18-4.92-76.06-4.46-32.25-11.29-64.7-17.84-96.11-9.95-47.39-20.21-96.38-22.61-145.52-2.36-49.49,3.85-90.43,19.06-125.2,7.24-16.58,17.04-32.79,29.32-48.38,8.12-10.37,17.35-20.55,27.6-30.35,5.15-4.96,10.48-9.68,15.94-14.22,61.88-51.58,141.94-77.93,218.19-70.91,31,2.82,61.19,11.36,88.95,24.59Z"/>
    </g>
  </g>
  <g>
    <g>
      <g>
        <rect class="st6" x="455.8" y="468.92" width="708.34" height="907.34" rx="8.24" ry="8.24"/>
        <rect class="st2" x="480.85" y="468.92" width="708.34" height="907.34" rx="8.24" ry="8.24"/>
        <rect class="st19" x="521.69" y="495.39" width="617.89" height="825.24"/>
      </g>
      <g>
        <g>
          <g>
            <path class="st15" d="M1023.96,656.46c-1.26-.24-3.94,4.19-5.28,6.17,1.3-4.69,4.69-16.11,2.42-17.09-2.44-.71-6.9,7.77-8.55,11.35.44-.95.38-2.54.58-3.57.27-1.44.55-2.88.79-4.33.31-1.82,1.37-5.17-.31-6.61-.67-.57-1.72-.49-2.48-.04-2.67,1.57-3.5,5.46-4.43,8.16-.61,1.78-1.22,3.57-1.68,5.39.13-.5-.04-1.28,0-1.81.05-.92.13-1.84.22-2.76.19-2,.56-4.1.48-6.11-.06-1.4-.69-4.23-2.7-3.24-.6.3-1.02.88-1.31,1.48-1.23,2.53-1.81,5.36-2.55,8.06-.38,1.38-.72,2.77-1.01,4.17-.28,1.35-.79,2.99-.74,4.37-.1-2.56-1.35-7.01-3.42-6.6-3.54.98-2.26,11.93-2.21,14.37.16,7.57.69,15.18-.06,22.74-.69,7.02-3.17,13.55-5.74,20.06-.74,1.88-6.15,19.65-7.03,19.63l-29.99-.61-1.24,41.26s46.81-1.2,53.11-11.23c1.76-2.8,2.49-6.43,3.32-9.58,1.53-5.82,2.74-11.73,3.86-17.64,2.78-14.66,3.96-29.9,8.36-44.21,2.77-9.01,5.21-18.12,7.94-27.15.5-1.65,1.37-4.32-.33-4.64Z"/>
            <path class="st13" d="M860.08,694.74s-9.52-7.27-45.64-7.72c-36.12-.45-114.15-3.28-115.93,8.76-1.78,12.04,27.79,28.41,27.79,28.41l52.33,11.27-25.86,45.78s69.41,44.15,106.43,49.94l35.08-59.6s76.67,3.74,76.61,1.47c-.28-10.14-5.07-45.06-5.07-45.06l-50.73-11.55s-25.97-7.28-30.62-11c-4.46-3.57-24.38-10.7-24.38-10.7Z"/>
            <path class="st16" d="M746.82,787.79s-47.56,21.4-88.59,10.11c-41.02-11.3-68.97-32.7-68.97-32.7l-11.89,59.46,23.19-20.81s24.97,42.81,80.86,45.78c55.89,2.97,89.18-7.13,89.18-7.13,0,0,39.83,11.89,62.43,52.92,22.59,41.02,13.08,105.83,13.08,105.83l54.7,5.35-24.38-20.22s6.84-72.31,1.19-101.67c-5.95-30.92-14.27-49.35-14.27-49.35l-116.53-47.56Z"/>
            <polygon class="st16" points="761.68 765.79 746.82 787.79 863.35 835.35 868.7 815.14 761.68 765.79"/>
            <path class="st15" d="M756.48,730.56l8.03-44.15s-67.75-.08-72.91,5.59c-2.46,2.7-2.75,7.65-3.14,11.07-3.03,26.55,4.49,52.57,4.46,79.06,0,1.72-.07,4.53,1.66,4.34,1.27-.14,2.56-5.15,3.27-7.44.11,4.86.16,16.78,2.61,17.06,2.54-.02,4.36-9.43,4.91-13.34-.14,1.03.36,2.54.48,3.59.16,1.46.31,2.92.49,4.37.23,1.83.18,5.35,2.21,6.23.81.35,1.79-.03,2.39-.68,2.11-2.27,1.78-6.24,1.89-9.09.07-1.88.13-3.77.05-5.65.02.51.4,1.22.53,1.73.22.9.4,1.8.58,2.7.4,1.97.64,4.08,1.3,5.99.46,1.32,1.88,3.86,3.52,2.33.49-.46.72-1.13.83-1.8.45-2.78.18-5.65.12-8.45-.03-1.43-.11-2.86-.24-4.28-.12-1.38-.1-3.09-.55-4.4.83,2.42,3.32,6.32,5.18,5.33,4.49-2.39-2.48-17.63-3.69-20.69-5.07-12.83-4.06-24.79-4.44-38.21l40.46,8.76Z"/>
          </g>
          <g>
            <path class="st15" d="M891.15,690.61l-4.44,9.85-3.84,8.59c-18.65,1.57-23.33-12.54-23.33-12.54l8.31-13.8,1.22-2.03,22.08,9.92Z"/>
            <path class="st12" d="M891.15,690.61l-4.44,9.85c-4.3-1.26-8.21-3.84-11.63-6.78-2.06-1.75-4.05-3.67-5.45-5.97-.94-1.5-1.57-3.25-1.78-5l1.22-2.03,22.08,9.92Z"/>
          </g>
          <path class="st15" d="M955.36,636.74c-4.15,15.75-8.81,32.24-20.88,44.04-11.35,11.09-29.16,16.63-45.22,12.95-16.06-3.68-29.33-16.98-30.72-32.18-.51-5.62-.62-10.67.9-16.14-6.19-1.43-13.07-3.33-16.12-8.5-2.9-4.91-1.88-13.63,2.12-17.83,3.41-3.59,7.76-4.75,12.93-4.68,5.18.07,11.83,3.9,14,8.23,4.75-6.71,13.63-10.98,22.24-12.09s17.39.36,25.7,2.7c12.47,3.51,28.33,13.2,35.05,23.5Z"/>
          <path class="st20" d="M870.74,622.43c.22,2.04.32,3.22-.36,5.16,11.44.25,22.71-6.78,27.51-17.17,3.38,9.44,11.5,16.93,21.14,19.68,1.46.42,3.03.73,4.48.27,1.45-.45,2.68-1.91,2.39-3.4,4.38,6.03,11.91,8.82,19.07,10.86,3.79,1.08,7.72,1.81,11.66,1.63,10.1-.46,19.6-7.48,23-17,1.35-3.79,1.8-7.96.8-11.86-1.18-4.61-4.27-8.52-7.77-11.75-9.89-9.12-23.8-13.74-37.18-12.33,1.2-2.85.82-6.53-.87-9.12-1.69-2.58-4.33-4.43-7.13-5.72-5.01-2.31-10.75-3-16.17-1.96-2.5.48-4.98,1.35-7.01,2.89s-3.59,3.81-3.92,6.34c-1.84-2.67-5.02-4.45-8.15-5.29-6.4-1.73-13.46.39-18.6,4.58-5.14,4.2-8.5,10.25-10.49,16.57-1.99,6.33-2.7,12.98-3.3,19.58,4.42.78,10.44,3.9,10.88,8.02Z"/>
        </g>
        <g>
          <path class="st20" d="M995.69,1009.3h-267.72c-2.65,0-4.81-2.16-4.81-4.81h0c0-2.65,2.16-4.81,4.81-4.81h267.72c2.65,0,4.81,2.16,4.81,4.81h0c0,2.65-2.16,4.81-4.81,4.81Z"/>
          <path class="st12" d="M778.87,1028.93c0,11.07-8.97,20.04-20.04,20.04s-20.04-8.97-20.04-20.04,8.97-20.04,20.04-20.04,20.04,8.97,20.04,20.04Z"/>
          <path class="st12" d="M984.47,1028.93c0,11.07-8.97,20.04-20.04,20.04s-20.04-8.97-20.04-20.04,8.97-20.04,20.04-20.04,20.04,8.97,20.04,20.04Z"/>
        </g>
      </g>
      <g>
        <rect class="st16" x="556.66" y="1098" width="548.1" height="188.79"/>
        <g>
          <rect class="st17" x="664.25" y="1109.16" width="6.6" height="21.31"/>
          <rect class="st17" x="685.06" y="1109.16" width="6.6" height="21.31"/>
          <rect class="st17" x="685.06" y="1109.16" width="6.6" height="21.31"/>
          <rect class="st17" x="705.87" y="1109.16" width="6.6" height="21.31"/>
          <rect class="st17" x="705.87" y="1109.16" width="6.6" height="21.31"/>
          <rect class="st17" x="726.68" y="1109.16" width="6.6" height="21.31"/>
          <rect class="st17" x="726.68" y="1109.16" width="6.6" height="21.31"/>
          <rect class="st17" x="747.48" y="1109.16" width="6.6" height="21.31"/>
          <rect class="st17" x="747.48" y="1109.16" width="6.6" height="21.31"/>
          <rect class="st17" x="768.29" y="1109.16" width="6.6" height="21.31"/>
          <rect class="st17" x="768.29" y="1109.16" width="6.6" height="21.31"/>
          <rect class="st17" x="789.1" y="1109.16" width="6.6" height="21.31"/>
          <rect class="st17" x="789.1" y="1109.16" width="6.6" height="21.31"/>
          <rect class="st17" x="809.91" y="1109.16" width="6.6" height="21.31"/>
          <rect class="st17" x="809.91" y="1109.16" width="6.6" height="21.31"/>
          <rect class="st17" x="830.71" y="1109.16" width="6.6" height="21.31"/>
          <rect class="st17" x="830.71" y="1109.16" width="6.6" height="21.31"/>
          <rect class="st17" x="851.52" y="1109.16" width="6.6" height="21.31"/>
          <rect class="st17" x="851.52" y="1109.16" width="6.6" height="21.31"/>
          <rect class="st17" x="872.33" y="1109.16" width="6.6" height="21.31"/>
          <rect class="st17" x="872.33" y="1109.16" width="6.6" height="21.31"/>
          <rect class="st17" x="893.13" y="1109.16" width="6.6" height="21.31"/>
          <rect class="st17" x="893.13" y="1109.16" width="6.6" height="21.31"/>
          <rect class="st17" x="913.94" y="1109.16" width="6.6" height="21.31"/>
          <rect class="st17" x="913.94" y="1109.16" width="6.6" height="21.31"/>
          <rect class="st17" x="934.75" y="1109.16" width="6.6" height="21.31"/>
          <rect class="st17" x="934.75" y="1109.16" width="6.6" height="21.31"/>
          <rect class="st17" x="955.56" y="1109.16" width="6.6" height="21.31"/>
          <rect class="st17" x="955.56" y="1109.16" width="6.6" height="21.31"/>
          <rect class="st17" x="976.36" y="1109.16" width="6.6" height="21.31"/>
          <rect class="st17" x="976.36" y="1109.16" width="6.6" height="21.31"/>
          <rect class="st17" x="997.17" y="1109.16" width="6.6" height="21.31"/>
          <rect class="st8" x="997.17" y="1109.16" width="6.6" height="21.31"/>
          <rect class="st17" x="1017.98" y="1109.16" width="6.6" height="21.31"/>
          <rect class="st17" x="1017.98" y="1109.16" width="6.6" height="21.31"/>
          <rect class="st17" x="1038.79" y="1109.16" width="6.6" height="21.31"/>
          <rect class="st17" x="1038.79" y="1109.16" width="6.6" height="21.31"/>
          <rect class="st17" x="1059.59" y="1109.16" width="6.6" height="21.31"/>
          <rect class="st17" x="1059.59" y="1109.16" width="6.6" height="21.31"/>
          <rect class="st17" x="1080.4" y="1109.16" width="6.6" height="21.31"/>
        </g>
        <rect class="st12" x="555.65" y="1139.14" width="549.11" height="2.98"/>
        <rect class="st12" x="555.65" y="1175.67" width="549.11" height="2.98"/>
        <rect class="st12" x="555.65" y="1175.67" width="549.11" height="2.98"/>
        <rect class="st12" x="555.65" y="1212.22" width="549.11" height="2.98"/>
        <rect class="st12" x="555.65" y="1212.22" width="549.11" height="2.98"/>
        <rect class="st12" x="555.65" y="1248.75" width="549.11" height="2.98"/>
        <rect class="st12" x="555.65" y="1248.75" width="549.11" height="2.98"/>
        <rect class="st12" x="649.57" y="1098" width="2.98" height="187.77"/>
        <rect class="st13" x="657.15" y="1144.69" width="447.61" height="26.39"/>
        <rect class="st13" x="657.15" y="1255.32" width="174.07" height="26.39"/>
        <rect class="st13" x="930.69" y="1255.32" width="174.07" height="26.39"/>
        <rect class="st15" x="731.75" y="1220.05" width="374.02" height="26.39"/>
        <rect class="st20" x="681.51" y="1181.99" width="422.74" height="26.39"/>
        <rect class="st12" x="862.21" y="1141.9" width="2.98" height="145.9"/>
        <g>
          <polygon class="st18" points="853.8 1116.39 872.07 1116.39 872.26 1143.8 863.89 1152.55 853.71 1144.27 853.8 1116.39"/>
          <path class="st12" d="M863.99,1154.07l-11.4-9.26.1-29.53h20.5l.2,28.97-9.4,9.83ZM854.83,1143.74l8.96,7.29,7.35-7.68-.18-25.84h-16.05l-.09,26.23Z"/>
        </g>
      </g>
    </g>
    <path class="st3" d="M925.54,1364.43h-184.17c-7.62,0-13.8-6.18-13.8-13.8h0c0-7.62,6.18-13.8,13.8-13.8h184.17c7.62,0,13.8,6.18,13.8,13.8h0c0,7.62-6.18,13.8-13.8,13.8Z"/>
  </g>
  <path class="st1" d="M718.57,860.12l-4.2-13.52s-27.45-25.58-24.24-33.33c3.96-9.56,1.4-18.88,7.92-23.07,0,0,3.26-16.78,15.38-17.71l8.86-2.8s-25.17-43.35-17.25-48.48c7.92-5.13,34.03,34.49,41.02,43.82,6.99,9.32,18.64,34.49,22.37,45.21,3.73,10.72,5.59,34.96,5.59,34.96l-55.47,14.92Z"/>
  <path class="st1" d="M1370.98,1027.61s23.62,17.4,34.8,109.38c11.19,91.98-2.49,267.09-2.49,267.09l-69.3,210.38s-42.57-228.87-51.27-310.9c-8.7-82.04,88.25-275.94,88.25-275.94Z"/>
  <path class="st7" d="M1260.51,775.88c0-.05,0-.11,0-.16,0-45.37-36.78-82.15-82.15-82.15-35.84,0-66.31,22.97-77.53,54.98-2.06,4.55-5.4,15.4-7.52,40.29-3.04,4.49-26.21,38.91-23.59,42.39,1.88,2.5,12.95,6.04,20.06,8.11-2.07,29.63-2.05,49.32,11.48,52.02,5.51,1.1,18.76,1.1,34.68.56l-1.58,47.92s43.35,15.38,91.36.47l15.86-85.03c9.89-23.6,20.89-55.92,18.94-79.39Z"/>
  <g>
    <path class="st14" d="M1114.13,781.07c.87.74,1.75,1.61,1.93,2.74.21,1.3-.6,2.61-1.7,3.34-1.1.73-2.44,1-3.74,1.19-3.35.48-6.77.55-10.14.19-1.68-.18-3.48-.53-4.6-1.79-.87-.98-1.16-2.4-.96-3.69.21-1.3.86-2.49,1.69-3.51,4.23-5.21,13.23-2.08,17.51,1.54Z"/>
    <path class="st0" d="M1088.83,835.05c.64-.93,1.52-1.69,2.53-2.2.78.75,1.55,1.49,2.33,2.24.58.56,1.49,1.15,2.12.64.29-.24.39-.64.47-1,.17-.78.35-1.57.52-2.35"/>
    <path class="st14" d="M1105.61,802.09c0,3.73-2.33,6.76-5.2,6.76s-5.21-3.03-5.21-6.76,2.33-6.76,5.21-6.76,5.2,3.03,5.2,6.76Z"/>
    <path class="st0" d="M1090.19,845.58c2.32,1.69,5.34,2.39,8.16,1.87,2.82-.52,5.4-2.24,6.96-4.65"/>
  </g>
  <path class="st14" d="M1102.17,718.21c-7.14,1.05-13.8,4.57-19.17,9.39-3.59,3.21-6.7,7.1-8.34,11.63-4.18,11.56,2.77,25.21,13.66,30.9,10.89,5.7,24.43,4.46,35.59-.7-3.44,3.43-8.37,7.01-9.63,11.7-1.26,4.69-.48,10.13,2.87,13.64,2.97,3.12,7.54,4.32,11.84,4.1,4.3-.22,8.43-1.71,12.44-3.29-1.52,8.18-1.5,16.75-1.44,25.07.08,10.95,1.76,22.44,8.33,31.2,6.57,8.77,19.19,13.73,28.93,8.73,1.17,5.91,3.49,12.44,6.92,17.4,5.07,7.34,14.4,10.99,23.31,10.74,3.05-.09,6.16-.6,8.83-2.1,5.34-3,7.86-9.2,9.99-14.95,2.35,3.64,8.11,4.7,12.43,5.06,4.32.36,8.63-.77,12.66-2.37,4.18-1.66,8.22-3.88,11.34-7.11,4.33-4.5,6.57-10.67,7.39-16.86s.32-12.46-.19-18.68c6.55,1.08,11.69-3.3,16.53-7.84,9.19-8.61,14.93-20.8,15.72-33.37.78-12.57-3.4-25.38-11.45-35.06,4.84-12.84,2.56-28.27-5.4-39.45-7.96-11.18-21.66-18.02-35.38-17.65-6.71-16.26-27.33-26.43-44.91-27.05-12.39-.44-26.07,3.88-32.18,14.67-19.75-7.11-41.63-9.16-62.18-4.89-6.2,1.29-12.41,3.15-17.62,6.73-4.47,3.07-8.27,7.87-8.18,13.29.08,4.66,3.06,8.88,6.83,11.63,3.77,2.74,6.03,3.99,10.45,5.46Z"/>
  <g>
    <path class="st7" d="M1124.75,797.99c2.12-1.61,4.57-2.84,7.34-3.57,2.73-.72,5.76-.69,8.31.43,6.76,2.97,8.07,11.53,8.33,17.48.44,10.26-5.03,27.27-19.74,26.03-3.75-.31-7.14-2.35-9.41-5.03-2.27-2.68-3.52-5.95-4.21-9.25-1.84-8.76,1.39-20.03,9.38-26.09Z"/>
    <path class="st0" d="M1124.03,838.56s11.26,3.82,18.9-6.23"/>
    <path class="st0" d="M1130.25,822.15c.05-2.75,1.16-5.42,2.82-7.61,1.66-2.2,3.84-3.95,6.17-5.41"/>
  </g>
  <polygon class="st1" points="719.04 872.24 713.91 852.2 774.04 833.09 781.03 857.79 719.04 872.24"/>
  <g>
    <polygon class="st14" points="976.02 1511.29 958.62 1803.39 1137.61 1807.12 1157.5 1706.44 1183.6 1804.64 1338.98 1804.64 1338.98 1516.26 976.02 1511.29"/>
    <g>
      <polyline class="st9" points="1192.61 1630.62 1157.5 1706.44 1137.61 1807.12"/>
      <path class="st5" d="M985.4,1514.09c.23,96.08-3,192.17-9.67,288.02"/>
      <path class="st5" d="M1024.64,1519.61c.49,19.1.99,38.2,1.48,57.3.43,16.63,1.02,33.9,8.59,48.71,7.01,13.7,19.27,23.83,31.2,33.55,2.95,2.41,6.23,4.94,10.04,4.93,3.77,0,7.03-2.5,9.9-4.94,11.18-9.47,21.51-19.94,30.83-31.25,2.17-2.63,4.3-5.34,5.68-8.46,1.85-4.18,2.23-8.85,2.59-13.41,2.08-26.58,4.15-53.17,6.23-79.75"/>
      <path class="st5" d="M1320.82,1514.18c.85,19.09,1.7,38.18,2.55,57.26.74,16.62,1.37,33.89-5.15,49.19-6.03,14.16-17.55,25.13-28.76,35.67-2.77,2.61-5.87,5.36-9.67,5.62-3.76.26-7.19-2-10.23-4.23-11.82-8.66-22.86-18.38-32.95-29.01-2.35-2.47-4.67-5.03-6.26-8.04-2.14-4.04-2.85-8.67-3.52-13.19-3.94-26.37-7.88-52.75-11.82-79.12"/>
    </g>
  </g>
  <path class="st1" d="M1374.4,1033.06s-23,122.72-23,167.48-7.45,325.66-7.45,325.66c0,0-223.46,69.35-363.94-7.78-12.36-6.79-19.04-20.69-16.59-34.57l7.33-41.54-3.72-317.89s-.55-.22-1.61-.58c-2.52-.99-8.03-3.1-15.7-6.13-49.69-19.61-190.12-77.48-200.86-108.88-12.49-36.55-32.2-89.75-37.17-135.1-.36-3.54,1.75-6.83,5.15-7.85l62.18-18.66c3.72-1.13,7.67.88,8.95,4.53,6.57,18.44,25.56,70.03,35.49,76.9,12.12,8.4,144.48,19.57,181.8,20.52,37.28.91,108.11-11.21,108.11-11.21,0,0,2.81-33.56,22.38-34.47l87.19,3.8c7.08.33,17.23,4.53,18.15,11.57,1.24,9.6,4.2,26.4,4.2,27.49,0,6.61,104.86,45.68,129.11,86.72Z"/>
  <g>
    <path class="st21" d="M965.42,1123.83c-2.52-.99-8.03-3.1-15.7-6.13l13.58-30.56,2.12,36.7Z"/>
    <path class="st11" d="M1332.76,1103.59s1.24,264.76,2.49,310.75c1.24,45.99,29.83,71.78,3.73,112.8"/>
    <path class="st1" d="M1407.03,1353.74c-14.58,10.51-24.95,26.71-28.37,44.36-3.43,17.64.11,36.55,9.7,51.75"/>
  </g>
  <rect class="st10" x="381.19" y="410.62" width="1074.62" height="1127.84"/>
  <line class="st4" x1="178.56" y1="1804.17" x2="1906.56" y2="1804.17"/>
</svg>