<?xml version="1.0" encoding="UTF-8"?>
<svg id="Capa_1" xmlns="http://www.w3.org/2000/svg" version="1.1" viewBox="0 0 2000 2000">
  <!-- Generator: Adobe Illustrator 29.4.0, SVG Export Plug-In . SVG Version: 2.1.0 Build 152)  -->
  <defs>
    <style>
      .st0 {
        fill: #fff;
        stroke: #231f20;
        stroke-miterlimit: 10;
        stroke-width: 7px;
      }
    </style>
  </defs>
  <rect class="st0" x="263" y="510.01" width="1474" height="979.98" rx="44.21" ry="44.21"/>
  <path d="M1549.3,623.8h-14.14c-5.21,0-9.43,4.22-9.43,9.43v40.85c0,5.21,4.22,9.43,9.43,9.43s9.43-4.22,9.43-9.43v-3.14h4.71c13.02,0,23.57-10.55,23.57-23.57s-10.55-23.57-23.57-23.57ZM1549.3,652.08h-4.71v-9.43h4.71c2.6,0,4.71,2.11,4.71,4.71s-2.11,4.71-4.71,4.71ZM1582.29,570.37c-22.64.01-44.34,9.06-60.28,25.14h-15.14c-8.68,0-15.71,7.03-15.71,15.71v84.84c0,8.68,7.03,15.71,15.71,15.71h12.18c31.24,34.93,84.88,37.92,119.8,6.68,34.93-31.24,37.92-84.88,6.68-119.8-16.1-18-39.1-28.28-63.24-28.28ZM1582.29,589.23c32.79.04,60.58,24.12,65.31,56.56h-43.31v-34.57c0-8.68-7.03-15.71-15.71-15.71h-34.35c8.78-4.14,18.36-6.28,28.07-6.28ZM1510.02,614.37h75.42v78.56h-75.42v-78.56ZM1582.29,721.21c-11.99.02-23.76-3.24-34.03-9.43h40.32c8.68,0,15.71-7.03,15.71-15.71v-31.42h43.31c-4.72,32.44-32.52,56.52-65.31,56.56Z"/>
  <path d="M925.4,975.19c8.32-4.61,13.48-13.38,13.49-22.89v-142.75c0-14.46-11.72-26.19-26.19-26.19-3.77,0-7.49.81-10.91,2.38-83.68,38.51-137.34,122.14-137.49,214.25,0,7.35.35,14.75,1.03,22.04,1.35,14.4,14.12,24.98,28.52,23.63,3.6-.34,7.08-1.41,10.24-3.16l121.32-67.31ZM886.51,856.07v80.75l-68.07,37.76c6.65-46.77,31.02-89.19,68.07-118.5ZM1000,764.28c-14.46,0-26.19,11.73-26.19,26.19v195.39l-167.65,97.64c-12.5,7.28-16.73,23.31-9.45,35.81.02.04.04.07.07.11,65.97,112.22,210.42,149.72,322.64,83.75,112.22-65.97,149.72-210.42,83.75-322.64-42.33-72.02-119.62-116.25-203.16-116.26ZM1000,1183.3c-55.63-.15-108.22-25.41-143.1-68.75l156.19-91.03c8.09-4.67,13.08-13.29,13.09-22.63v-182.38c100.22,14.37,169.82,107.26,155.45,207.48-12.95,90.34-90.38,157.4-181.64,157.31Z"/>
  <circle cx="357.28" cy="605.63" r="30.66"/>
  <circle cx="447.73" cy="605.63" r="30.66"/>
  <circle cx="538.18" cy="605.63" r="30.66"/>
</svg>