<?xml version="1.0" encoding="UTF-8"?>
<svg id="Capa_1" xmlns="http://www.w3.org/2000/svg" version="1.1" viewBox="0 0 2000 2000">
  <!-- Generator: Adobe Illustrator 29.4.0, SVG Export Plug-In . SVG Version: 2.1.0 Build 152)  -->
  <defs>
    <style>
      .st0 {
        fill: #231f20;
      }

      .st1 {
        fill: #fff;
        stroke: #231f20;
        stroke-miterlimit: 10;
        stroke-width: 7px;
      }

      .st2 {
        fill: #1d1d1b;
        font-family: Poppins-Bold, Poppins;
        font-size: 158.23px;
        font-weight: 700;
      }
    </style>
  </defs>
  <rect class="st0" x="231.25" y="198.74" width="1557.31" height="758.34" rx="26.67" ry="26.67"/>
  <rect class="st1" x="211.43" y="172.57" width="1557.31" height="758.34" rx="26.67" ry="26.67"/>
  <rect class="st0" x="231.25" y="1069.09" width="1557.31" height="758.34" rx="26.67" ry="26.67"/>
  <rect class="st1" x="211.43" y="1042.91" width="1557.31" height="758.34" rx="26.67" ry="26.67"/>
  <polygon class="st0" points="761.14 542.84 761.23 543.04 761.05 543.04 761.14 542.84"/>
  <polygon class="st0" points="766.9 543.04 766.72 543.04 766.81 542.84 766.9 543.04"/>
  <g>
    <g>
      <path class="st0" d="M1117.6,547.71l-23.41,26.29c-32.75-19.86-71.18-31.32-112.33-31.32-43.31,0-83.62,12.71-117.47,34.57l-22.92-25.72c37.82-32.15,86.84-51.59,140.39-51.59s98.6,17.89,135.74,47.77Z"/>
      <path class="st0" d="M999.53,280.73l-.68-1.63h-45.12l-.68,1.63-93.72,217.13c17.32-9.68,35.78-17.28,54.88-22.65l62.1-143.87,60.74,140.77c18.31,4.12,36.08,10.29,52.99,18.34l-90.51-209.72Z"/>
    </g>
    <g>
      <path class="st0" d="M807.95,711.59h34.27v20.2h-60.44v-107.41h26.16v87.22Z"/>
      <path class="st0" d="M877.8,725.82c-8.42-4.69-15.1-11.25-20.04-19.66-4.95-8.42-7.42-17.88-7.42-28.38s2.47-19.94,7.42-28.31c4.95-8.36,11.63-14.89,20.04-19.59,8.42-4.69,17.67-7.04,27.77-7.04s19.36,2.35,27.77,7.04c8.42,4.69,15.05,11.22,19.89,19.59,4.84,8.37,7.27,17.8,7.27,28.31s-2.45,19.97-7.34,28.38c-4.9,8.42-11.53,14.97-19.89,19.66-8.37,4.69-17.6,7.04-27.69,7.04s-19.36-2.35-27.77-7.04ZM926.15,700.42c5.15-5.71,7.73-13.26,7.73-22.65s-2.58-17.06-7.73-22.72c-5.15-5.66-12.01-8.49-20.58-8.49s-15.58,2.81-20.73,8.42c-5.15,5.61-7.73,13.21-7.73,22.8s2.57,17.06,7.73,22.72c5.15,5.66,12.06,8.49,20.73,8.49s15.43-2.85,20.58-8.57Z"/>
      <path class="st0" d="M1046.34,658.34c-1.94-3.57-4.72-6.3-8.34-8.19-3.62-1.89-7.88-2.83-12.78-2.83-8.47,0-15.25,2.78-20.35,8.34-5.1,5.56-7.65,12.98-7.65,22.26,0,9.9,2.68,17.62,8.03,23.18,5.36,5.56,12.72,8.34,22.11,8.34,6.43,0,11.86-1.63,16.3-4.9,4.44-3.26,7.67-7.96,9.72-14.08h-33.2v-19.28h56.92v24.33c-1.94,6.53-5.23,12.6-9.87,18.21-4.64,5.61-10.53,10.15-17.67,13.62-7.14,3.47-15.2,5.2-24.18,5.2-10.61,0-20.07-2.32-28.38-6.96-8.32-4.64-14.79-11.09-19.43-19.36-4.64-8.26-6.96-17.7-6.96-28.31s2.32-20.07,6.96-28.38c4.64-8.31,11.09-14.79,19.36-19.43,8.26-4.64,17.7-6.96,28.31-6.96,12.85,0,23.69,3.11,32.51,9.33,8.82,6.22,14.66,14.84,17.52,25.86h-28.92Z"/>
      <path class="st0" d="M1114.66,725.82c-8.42-4.69-15.1-11.25-20.04-19.66-4.95-8.42-7.42-17.88-7.42-28.38s2.47-19.94,7.42-28.31c4.95-8.36,11.63-14.89,20.04-19.59,8.42-4.69,17.67-7.04,27.77-7.04s19.36,2.35,27.77,7.04c8.42,4.69,15.05,11.22,19.89,19.59,4.84,8.37,7.27,17.8,7.27,28.31s-2.45,19.97-7.34,28.38c-4.9,8.42-11.53,14.97-19.89,19.66-8.37,4.69-17.6,7.04-27.7,7.04s-19.36-2.35-27.77-7.04ZM1163.01,700.42c5.15-5.71,7.73-13.26,7.73-22.65s-2.58-17.06-7.73-22.72c-5.15-5.66-12.01-8.49-20.58-8.49s-15.58,2.81-20.73,8.42c-5.15,5.61-7.73,13.21-7.73,22.8s2.57,17.06,7.73,22.72c5.15,5.66,12.06,8.49,20.73,8.49s15.43-2.85,20.58-8.57Z"/>
    </g>
  </g>
  <rect class="st0" x="295" y="1300.57" width="373.13" height="51.11"/>
  <rect class="st0" x="295" y="1384.06" width="373.13" height="51.11"/>
  <rect class="st0" x="295" y="1457.32" width="149.93" height="51.11"/>
  <rect class="st0" x="1132.81" y="1197.44" width="189.62" height="25.98" transform="translate(2455.24 2420.86) rotate(-180)"/>
  <rect class="st0" x="1132.81" y="1239.87" width="189.62" height="25.98" transform="translate(2455.24 2505.72) rotate(-180)"/>
  <rect class="st0" x="1246.24" y="1277.1" width="76.2" height="25.98" transform="translate(2568.67 2580.18) rotate(-180)"/>
  <rect class="st0" x="1033.29" y="1601.91" width="140.85" height="19.29"/>
  <rect class="st0" x="1033.29" y="1633.43" width="140.85" height="19.29"/>
  <rect class="st0" x="1033.29" y="1661.08" width="56.6" height="19.29"/>
  <circle class="st0" cx="1103.72" cy="1521.55" r="58.61"/>
  <rect class="st0" x="1241.62" y="1601.91" width="140.85" height="19.29"/>
  <rect class="st0" x="1241.62" y="1633.43" width="140.85" height="19.29"/>
  <rect class="st0" x="1241.62" y="1661.08" width="56.6" height="19.29"/>
  <circle class="st0" cx="1312.05" cy="1521.55" r="58.61"/>
  <rect class="st0" x="1449.95" y="1601.91" width="140.85" height="19.29"/>
  <rect class="st0" x="1449.95" y="1633.43" width="140.85" height="19.29"/>
  <rect class="st0" x="1449.95" y="1661.08" width="56.6" height="19.29"/>
  <circle class="st0" cx="1520.38" cy="1521.55" r="58.61"/>
  <text class="st2" transform="translate(1343.16 1290.09)"><tspan x="0" y="0">AQ</tspan></text>
</svg>