<?xml version="1.0" encoding="UTF-8"?>
<svg id="Capa_1" xmlns="http://www.w3.org/2000/svg" version="1.1" viewBox="0 0 2000 2000">
  <!-- Generator: Adobe Illustrator 29.4.0, SVG Export Plug-In . SVG Version: 2.1.0 Build 152)  -->
  <defs>
    <style>
      .st0 {
        fill: #fff;
        stroke: #231f20;
        stroke-miterlimit: 10;
        stroke-width: 7px;
      }
    </style>
  </defs>
  <g>
    <rect class="st0" x="408.48" y="164.45" width="1183.04" height="1390.86" rx="44.21" ry="44.21"/>
    <rect class="st0" x="523.34" y="279.31" width="953.32" height="953.32" rx="44.21" ry="44.21"/>
    <path d="M610.02,1292.98c0,27.09-40.16,49.01-41.87,49.92-.92.49-2.02.49-2.93,0-1.71-.91-41.87-22.83-41.87-49.92.01-13.24,10.75-23.98,23.99-23.99,7.99,0,14.99,3.44,19.35,9.24,4.36-5.81,11.36-9.24,19.35-9.24,13.24.01,23.98,10.75,23.99,23.99Z"/>
    <path d="M692.17,1258.59c-23.08,0-41.8,18.7-41.8,41.78,0,6.63,1.57,13.16,4.59,19.06l-4.2,12.55c-1.37,4.05.81,8.44,4.86,9.81,1.6.54,3.34.54,4.94,0l12.55-4.18c20.56,10.5,45.73,2.34,56.23-18.22,10.5-20.56,2.34-45.73-18.22-56.23-5.87-3-12.36-4.56-18.96-4.57ZM692.17,1332.89c-5.71,0-11.33-1.5-16.28-4.36-.71-.41-1.51-.63-2.32-.63-.5,0-1,.08-1.47.24l-11.53,3.84,3.84-11.53c.42-1.26.28-2.64-.39-3.8-8.99-15.54-3.68-35.42,11.86-44.41,15.54-8.99,35.42-3.68,44.41,11.86,8.99,15.54,3.68,35.42-11.86,44.41-4.95,2.86-10.56,4.37-16.27,4.37Z"/>
    <path d="M849.17,1263.5c-1.98-1.98-4.88-2.74-7.57-1.98l-.09.03-74.26,22.51c-4.11,1.19-6.47,5.48-5.28,9.59.61,2.12,2.1,3.87,4.09,4.83l32.36,15.77,15.75,32.37c1.27,2.7,3.99,4.41,6.97,4.4.22,0,.45,0,.67-.03,3.21-.25,5.92-2.47,6.8-5.57l22.51-74.26s.02-.06.03-.09c.76-2.7,0-5.59-1.98-7.57ZM820.83,1339.04l-13.3-27.34,17.8-17.78c1.82-1.82,1.82-4.76,0-6.58s-4.76-1.82-6.58,0h0l-17.8,17.8-27.32-13.31,67.75-20.54-20.54,67.75Z"/>
    <path d="M1053.89,614.89c0-33.73,27.34-61.07,61.07-61.07s61.07,27.34,61.07,61.07-27.34,61.07-61.07,61.07-61.07-27.34-61.07-61.07ZM1405.02,462.23v549.6c0,42.16-34.18,76.33-76.33,76.33h-671.73c-42.16,0-76.33-34.18-76.33-76.33V462.23c0-42.16,34.18-76.33,76.33-76.33h671.73c42.16,0,76.33,34.18,76.33,76.33ZM672.22,477.49v304.26l129.23-129.23c29.81-29.8,78.13-29.8,107.94,0l157.13,157.02,65.57-65.53c29.81-29.8,78.13-29.8,107.94,0l73.39,73.51v-340.03h-641.2ZM672.22,996.56h451.66l-268.46-268.46-183.2,183.2v85.26ZM1313.42,996.56v-49.62l-127.36-127.36-54.77,54.85,122.13,122.13h60Z"/>
  </g>
  <g>
    <path d="M694.42,1641.09c-52.53,0-95.12,42.59-95.12,95.12s42.59,95.12,95.12,95.12,95.12-42.59,95.12-95.12c-.06-52.51-42.61-95.06-95.12-95.12ZM704.99,1809.42v-48.56h17.62c5.84,0,10.57-4.73,10.57-10.57s-4.73-10.57-10.57-10.57h-17.62v-17.62c0-5.84,4.73-10.57,10.57-10.57h14.09c5.84,0,10.57-4.73,10.57-10.57s-4.73-10.57-10.57-10.57h-14.09c-17.51,0-31.71,14.2-31.71,31.71v17.62h-17.62c-5.84,0-10.57,4.73-10.57,10.57s4.73,10.57,10.57,10.57h17.62v48.56c-40.44-5.84-68.49-43.35-62.66-83.79,5.84-40.44,43.35-68.49,83.79-62.66,40.44,5.84,68.49,43.35,62.66,83.79-4.69,32.47-30.19,57.97-62.66,62.66Z"/>
    <path d="M1005.25,1692.4c-24.33,0-44.05,19.72-44.05,44.05s19.72,44.05,44.05,44.05,44.05-19.72,44.05-44.05c-.03-24.32-19.73-44.02-44.05-44.05ZM1005.25,1758.47c-12.16,0-22.02-9.86-22.02-22.02s9.86-22.02,22.02-22.02,22.02,9.86,22.02,22.02-9.86,22.02-22.02,22.02ZM1049.3,1637.33h-88.1c-30.39.04-55.02,24.67-55.06,55.06v88.1c.04,30.39,24.67,55.02,55.06,55.06h88.1c30.39-.04,55.02-24.67,55.06-55.06v-88.1c-.04-30.39-24.67-55.02-55.06-55.06ZM1082.33,1780.49c0,18.25-14.79,33.04-33.04,33.04h-88.1c-18.25,0-33.04-14.79-33.04-33.04v-88.1c0-18.25,14.79-33.04,33.04-33.04h88.1c18.25,0,33.04,14.79,33.04,33.04v88.1ZM1067.65,1688.72c0,8.11-6.57,14.68-14.68,14.68s-14.68-6.57-14.68-14.68,6.57-14.68,14.68-14.68,14.68,6.57,14.68,14.68Z"/>
    <path d="M1390.61,1688.73c-20.42-.02-36.97-16.57-37-37,0-5.57-4.52-10.09-10.09-10.09h-33.63c-5.57,0-10.09,4.52-10.09,10.09v110.99c0,7.43-6.03,13.45-13.46,13.44-7.43,0-13.45-6.03-13.44-13.46,0-5.2,3-9.92,7.69-12.15,3.52-1.67,5.76-5.22,5.76-9.11v-35.9c0-5.57-4.52-10.09-10.09-10.09-.59,0-1.18.05-1.76.16-15.54,2.84-29.57,11.11-39.59,23.32-10.2,12.31-15.8,27.79-15.82,43.78,0,37.15,30.12,67.27,67.27,67.27s67.27-30.12,67.27-67.27v-28.03c11.64,5.2,24.25,7.87,37,7.85,5.57,0,10.09-4.52,10.09-10.09v-33.63c0-5.57-4.52-10.09-10.09-10.09ZM1380.52,1721.65c-11.23-1.59-21.91-5.89-31.11-12.54-4.53-3.25-10.83-2.22-14.08,2.31-1.23,1.72-1.9,3.78-1.89,5.9v45.41c0,26.01-21.08,47.09-47.09,47.09s-47.09-21.08-47.09-47.09c.06-18.37,10.47-35.14,26.91-43.35v16.45c-14.86,11.15-17.87,32.23-6.73,47.09,11.15,14.86,32.23,17.87,47.09,6.73,8.47-6.35,13.45-16.32,13.45-26.91v-100.9h14.34c4.27,23.52,22.67,41.93,46.2,46.2v13.63Z"/>
  </g>
  <rect x="510.06" y="1394.95" width="966.6" height="15.08"/>
  <rect x="510.06" y="1422.94" width="966.6" height="15.08"/>
  <rect x="510.06" y="1450.94" width="505.37" height="15.08"/>
</svg>