<?xml version="1.0" encoding="UTF-8"?>
<svg id="Capa_1" xmlns="http://www.w3.org/2000/svg" version="1.1" viewBox="0 0 2000 2000">
  <!-- Generator: Adobe Illustrator 29.4.0, SVG Export Plug-In . SVG Version: 2.1.0 Build 152)  -->
  <defs>
    <style>
      .st0 {
        fill: #231f20;
      }

      .st1 {
        fill: #fff;
        stroke: #231f20;
        stroke-miterlimit: 10;
        stroke-width: 7px;
      }
    </style>
  </defs>
  <path class="st0" d="M1265.74,441.36h-660.41c-54.71,0-99.06,44.35-99.06,99.06v462.29c0,54.71,44.35,99.06,99.06,99.06h297.19v66.04h-99.06c-18.24,0-33.02,14.78-33.02,33.02s14.78,33.02,33.02,33.02h264.16c18.24,0,33.02-14.78,33.02-33.02s-14.78-33.02-33.02-33.02h-99.06v-66.04h297.19c54.71,0,99.06-44.35,99.06-99.06v-462.29c0-54.71-44.35-99.06-99.06-99.06ZM605.33,507.4h660.41c18.24,0,33.02,14.78,33.02,33.02v330.21h-726.45v-330.21c0-18.24,14.78-33.02,33.02-33.02ZM1265.74,1035.73h-660.41c-18.24,0-33.02-14.78-33.02-33.02v-66.04h726.45v66.04c0,18.24-14.78,33.02-33.02,33.02Z"/>
  <path class="st0" d="M1122.98,1291.13h-332.5c-18.36,0-33.25,14.89-33.25,33.25v332.5c0,18.36,14.89,33.25,33.25,33.25h332.5c18.36,0,33.25-14.89,33.25-33.25v-332.5c0-18.36-14.89-33.25-33.25-33.25ZM856.99,1324.38h49.87v182.87h-49.87v-182.87ZM923.49,1540.51c9.18,0,16.62-7.44,16.62-16.62v-199.5h33.25v199.5c0,9.18,7.44,16.62,16.62,16.62h16.62v116.37h-99.75v-116.37h16.62ZM1006.61,1507.26v-182.87h49.87v182.87h-49.87ZM790.49,1324.38h33.25v199.5c0,9.18,7.44,16.62,16.62,16.62h33.25v116.37h-83.12v-332.5ZM1122.98,1656.88h-83.12v-116.37h33.25c9.18,0,16.62-7.44,16.62-16.62v-199.5h33.25v332.5Z"/>
  <path class="st0" d="M1705.36,758.23h-268.57c-18.54,0-33.57,15.03-33.57,33.57v369.28c0,18.54,15.03,33.57,33.57,33.57h268.57c18.54,0,33.57-15.03,33.57-33.57v-369.28c0-18.54-15.03-33.57-33.57-33.57ZM1705.36,1161.08h-268.57v-369.28h268.57v369.28ZM1545.9,867.33c0-13.91,11.27-25.18,25.18-25.18s25.18,11.27,25.18,25.18-11.27,25.18-25.18,25.18-25.18-11.27-25.18-25.18ZM1571.08,1110.72c46.35,0,83.93-37.58,83.93-83.93s-37.58-83.93-83.93-83.93-83.93,37.58-83.93,83.93,37.58,83.93,83.93,83.93ZM1571.08,976.44c27.81,0,50.36,22.55,50.36,50.36s-22.55,50.36-50.36,50.36-50.36-22.55-50.36-50.36,22.55-50.36,50.36-50.36Z"/>
  <line class="st1" x1="193.59" y1="1065.27" x2="1409.81" y2="1065.27"/>
  <path class="st0" d="M718.75,661.45v77.33c0,5.34-4.33,9.67-9.67,9.67s-9.67-4.33-9.67-9.67v-77.33c0-5.34,4.33-9.67,9.67-9.67s9.67,4.33,9.67,9.67ZM757.42,574.45c-5.34,0-9.67,4.33-9.67,9.67v232c0,5.34,4.33,9.67,9.67,9.67s9.67-4.33,9.67-9.67v-232c0-5.34-4.33-9.67-9.67-9.67ZM805.76,613.12c-5.34,0-9.67,4.33-9.67,9.67v154.67c0,5.34,4.33,9.67,9.67,9.67s9.67-4.33,9.67-9.67v-154.67c0-5.34-4.33-9.67-9.67-9.67ZM854.09,651.78c-5.34,0-9.67,4.33-9.67,9.67v77.33c0,5.34,4.33,9.67,9.67,9.67s9.67-4.33,9.67-9.67v-77.33c0-5.34-4.33-9.67-9.67-9.67ZM902.42,632.45c-5.34,0-9.67,4.33-9.67,9.67v116c0,5.34,4.33,9.67,9.67,9.67s9.67-4.33,9.67-9.67v-116c0-5.34-4.33-9.67-9.67-9.67Z"/>
  <path class="st0" d="M951.13,661.45v77.33c0,5.34-4.33,9.67-9.67,9.67s-9.67-4.33-9.67-9.67v-77.33c0-5.34,4.33-9.67,9.67-9.67s9.67,4.33,9.67,9.67ZM989.8,574.45c-5.34,0-9.67,4.33-9.67,9.67v232c0,5.34,4.33,9.67,9.67,9.67s9.67-4.33,9.67-9.67v-232c0-5.34-4.33-9.67-9.67-9.67ZM1038.13,613.12c-5.34,0-9.67,4.33-9.67,9.67v154.67c0,5.34,4.33,9.67,9.67,9.67s9.67-4.33,9.67-9.67v-154.67c0-5.34-4.33-9.67-9.67-9.67ZM1086.47,651.78c-5.34,0-9.67,4.33-9.67,9.67v77.33c0,5.34,4.33,9.67,9.67,9.67s9.67-4.33,9.67-9.67v-77.33c0-5.34-4.33-9.67-9.67-9.67ZM1134.8,632.45c-5.34,0-9.67,4.33-9.67,9.67v116c0,5.34,4.33,9.67,9.67,9.67s9.67-4.33,9.67-9.67v-116c0-5.34-4.33-9.67-9.67-9.67Z"/>
</svg>