<?xml version="1.0" encoding="UTF-8"?>
<svg id="Capa_1" xmlns="http://www.w3.org/2000/svg" version="1.1" viewBox="0 0 2000 2000">
  <!-- Generator: Adobe Illustrator 29.4.0, SVG Export Plug-In . SVG Version: 2.1.0 Build 152)  -->
  <defs>
    <style>
      .st0, .st1 {
        fill: #231f20;
      }

      .st2 {
        fill: #fff;
      }

      .st2, .st3, .st4 {
        stroke-miterlimit: 10;
      }

      .st2, .st4 {
        stroke: #231f20;
        stroke-width: 7px;
      }

      .st3 {
        stroke: #1d1d1b;
        stroke-width: 2px;
      }

      .st3, .st4 {
        fill: none;
      }

      .st5 {
        fill: #1d1d1b;
        font-family: Poppins-Bold, Poppins;
        font-size: 39.71px;
        font-weight: 700;
      }

      .st1 {
        isolation: isolate;
        opacity: .04;
      }
    </style>
  </defs>
  <rect class="st2" x="165" y="557.9" width="1664" height="908.74" rx="44.67" ry="44.67"/>
  <rect class="st1" x="165" y="557.9" width="1664" height="908.74" rx="44.67" ry="44.67"/>
  <text class="st5" transform="translate(239.87 773.1)"><tspan x="0" y="0">To</tspan></text>
  <text class="st5" transform="translate(239.87 820.69)"><tspan x="0" y="0">Cc</tspan></text>
  <text class="st5" transform="translate(239.87 872.77)"><tspan x="0" y="0">Affair</tspan></text>
  <circle class="st0" cx="243.99" cy="636.43" r="19.24"/>
  <circle class="st0" cx="305.99" cy="636.43" r="19.24"/>
  <circle class="st0" cx="367.99" cy="636.43" r="19.24"/>
  <line class="st3" x1="297" y1="773.1" x2="1703" y2="773.1"/>
  <line class="st3" x1="297" y1="820.69" x2="1703" y2="820.69"/>
  <line class="st3" x1="352.61" y1="872.77" x2="1703" y2="872.77"/>
  <rect class="st2" x="235.42" y="1115.46" width="1050.91" height="243.99" rx="18.44" ry="18.44"/>
  <circle class="st2" cx="407" cy="1243.48" r="81.77"/>
  <g>
    <g>
      <path class="st0" d="M841.3,1249.34l-6.67,7.48c-9.33-5.65-20.27-8.92-31.98-8.92-12.33,0-23.81,3.62-33.45,9.84l-6.53-7.32c10.77-9.15,24.73-14.69,39.97-14.69s28.07,5.09,38.65,13.6h0Z"/>
      <path class="st0" d="M807.68,1173.32l-.19-.46h-12.85l-.19.46-26.69,61.82c4.93-2.76,10.19-4.92,15.63-6.45l17.68-40.96,17.29,40.08c5.21,1.17,10.27,2.93,15.09,5.22l-25.77-59.71h0Z"/>
    </g>
    <g>
      <path class="st0" d="M753.14,1296h9.76v5.75h-17.21v-30.58h7.45v24.83h0Z"/>
      <path class="st0" d="M773.02,1300.05c-2.4-1.34-4.3-3.2-5.71-5.6-1.41-2.4-2.11-5.09-2.11-8.08s.7-5.68,2.11-8.06c1.41-2.38,3.31-4.24,5.71-5.58,2.4-1.34,5.03-2,7.91-2s5.51.67,7.91,2c2.4,1.34,4.28,3.2,5.66,5.58,1.38,2.38,2.07,5.07,2.07,8.06s-.7,5.69-2.09,8.08c-1.39,2.4-3.28,4.26-5.66,5.6s-5.01,2-7.89,2-5.51-.67-7.91-2ZM786.79,1292.82c1.47-1.63,2.2-3.77,2.2-6.45s-.73-4.86-2.2-6.47c-1.47-1.61-3.42-2.42-5.86-2.42s-4.44.8-5.9,2.4c-1.47,1.6-2.2,3.76-2.2,6.49s.73,4.86,2.2,6.47c1.47,1.61,3.43,2.42,5.9,2.42s4.39-.81,5.86-2.44Z"/>
      <path class="st0" d="M821.01,1280.84c-.55-1.02-1.34-1.79-2.37-2.33-1.03-.54-2.24-.81-3.64-.81-2.41,0-4.34.79-5.79,2.37s-2.18,3.7-2.18,6.34c0,2.82.76,5.02,2.29,6.6,1.53,1.58,3.62,2.37,6.3,2.37,1.83,0,3.38-.46,4.64-1.39,1.26-.93,2.19-2.27,2.77-4.01h-9.45v-5.49h16.21v6.93c-.55,1.86-1.49,3.59-2.81,5.18-1.32,1.6-3,2.89-5.03,3.88-2.03.99-4.33,1.48-6.88,1.48-3.02,0-5.71-.66-8.08-1.98-2.37-1.32-4.21-3.16-5.53-5.51-1.32-2.35-1.98-5.04-1.98-8.06s.66-5.71,1.98-8.08c1.32-2.37,3.16-4.21,5.51-5.53,2.35-1.32,5.04-1.98,8.06-1.98,3.66,0,6.75.89,9.26,2.66,2.51,1.77,4.17,4.23,4.99,7.36h-8.23,0Z"/>
      <path class="st0" d="M840.46,1300.05c-2.4-1.34-4.3-3.2-5.71-5.6-1.41-2.4-2.11-5.09-2.11-8.08s.7-5.68,2.11-8.06c1.41-2.38,3.31-4.24,5.71-5.58,2.4-1.34,5.03-2,7.91-2s5.51.67,7.91,2c2.4,1.34,4.28,3.2,5.66,5.58,1.38,2.38,2.07,5.07,2.07,8.06s-.7,5.69-2.09,8.08-3.28,4.26-5.66,5.6c-2.38,1.34-5.01,2-7.89,2s-5.51-.67-7.91-2ZM854.23,1292.82c1.47-1.63,2.2-3.77,2.2-6.45s-.73-4.86-2.2-6.47c-1.47-1.61-3.42-2.42-5.86-2.42s-4.44.8-5.9,2.4c-1.47,1.6-2.2,3.76-2.2,6.49s.73,4.86,2.2,6.47c1.47,1.61,3.43,2.42,5.9,2.42s4.39-.81,5.86-2.44Z"/>
    </g>
  </g>
  <line class="st4" x1="935" y1="1166.9" x2="935" y2="1316.9"/>
  <rect class="st0" x="997" y="1194.45" width="163" height="19.11"/>
  <rect class="st0" x="997" y="1227.9" width="163" height="19.11"/>
  <rect class="st0" x="997" y="1261.36" width="92" height="19.11"/>
</svg>