<?xml version="1.0" encoding="UTF-8"?>
<svg id="Capa_1" xmlns="http://www.w3.org/2000/svg" version="1.1" viewBox="0 0 2000 2000">
  <!-- Generator: Adobe Illustrator 29.4.0, SVG Export Plug-In . SVG Version: 2.1.0 Build 152)  -->
  <defs>
    <style>
      .st0 {
        fill: #231f20;
      }
    </style>
  </defs>
  <polygon class="st0" points="544.12 665.57 544.31 666 543.94 666 544.12 665.57"/>
  <polygon class="st0" points="556.23 666 555.86 666 556.05 665.57 556.23 666"/>
  <g>
    <g>
      <path class="st0" d="M1444.87,1074.5l-76.83,86.26c-107.49-65.16-233.59-102.77-368.64-102.77-142.12,0-274.43,41.7-385.52,113.45l-75.22-84.4c124.12-105.5,284.98-169.3,460.73-169.3s323.58,58.71,445.47,156.76Z"/>
      <path class="st0" d="M1057.36,198.34l-2.23-5.34h-148.08l-2.23,5.34-307.57,712.57c56.85-31.77,117.42-56.72,180.1-74.35l203.81-472.15,199.34,461.97c60.07,13.53,118.41,33.76,173.89,60.2l-297.02-688.25Z"/>
    </g>
    <g>
      <path class="st0" d="M428.66,1612.3h112.48v66.28h-198.35v-352.51h85.87v286.22Z"/>
      <path class="st0" d="M657.89,1659c-27.62-15.39-49.55-36.91-65.78-64.53-16.24-27.62-24.35-58.66-24.35-93.15s8.11-65.44,24.35-92.9c16.23-27.45,38.16-48.87,65.78-64.27,27.62-15.39,58-23.1,91.14-23.1s63.52,7.71,91.14,23.1c27.62,15.4,49.38,36.83,65.28,64.27,15.9,27.45,23.85,58.42,23.85,92.9s-8.03,65.53-24.1,93.15c-16.07,27.62-37.83,49.13-65.28,64.53-27.45,15.4-57.75,23.1-90.89,23.1s-63.52-7.7-91.14-23.1ZM816.57,1575.65c16.9-18.74,25.36-43.51,25.36-74.32s-8.46-55.99-25.36-74.57c-16.91-18.58-39.42-27.87-67.54-27.87s-51.14,9.21-68.04,27.62c-16.91,18.42-25.36,43.36-25.36,74.82s8.45,55.99,25.36,74.57c16.9,18.58,39.58,27.87,68.04,27.87s50.63-9.37,67.54-28.12Z"/>
      <path class="st0" d="M1211,1437.56c-6.36-11.71-15.49-20.67-27.37-26.87-11.89-6.19-25.86-9.29-41.93-9.29-27.79,0-50.05,9.12-66.79,27.37-16.74,18.25-25.11,42.6-25.11,73.06,0,32.47,8.79,57.83,26.36,76.08,17.58,18.25,41.76,27.37,72.56,27.37,21.09,0,38.92-5.35,53.48-16.07,14.56-10.71,25.19-26.11,31.89-46.2h-108.97v-63.27h186.8v79.84c-6.36,21.43-17.16,41.35-32.39,59.76-15.24,18.41-34.57,33.31-58,44.69-23.44,11.38-49.88,17.07-79.34,17.07-34.82,0-65.87-7.61-93.15-22.85-27.29-15.23-48.54-36.41-63.77-63.52-15.24-27.12-22.85-58.08-22.85-92.9s7.61-65.86,22.85-93.15c15.23-27.28,36.41-48.54,63.52-63.77,27.12-15.23,58.08-22.85,92.9-22.85,42.18,0,77.75,10.21,106.71,30.63,28.95,20.42,48.12,48.71,57.5,84.86h-94.91Z"/>
      <path class="st0" d="M1435.2,1659c-27.62-15.39-49.55-36.91-65.78-64.53-16.24-27.62-24.35-58.66-24.35-93.15s8.11-65.44,24.35-92.9c16.23-27.45,38.16-48.87,65.78-64.27,27.62-15.39,58-23.1,91.14-23.1s63.52,7.71,91.14,23.1c27.62,15.4,49.38,36.83,65.28,64.27,15.9,27.45,23.85,58.42,23.85,92.9s-8.03,65.53-24.1,93.15c-16.07,27.62-37.83,49.13-65.28,64.53-27.45,15.4-57.75,23.1-90.89,23.1s-63.52-7.7-91.14-23.1ZM1593.88,1575.65c16.9-18.74,25.36-43.51,25.36-74.32s-8.46-55.99-25.36-74.57c-16.91-18.58-39.42-27.87-67.54-27.87s-51.14,9.21-68.04,27.62c-16.91,18.42-25.36,43.36-25.36,74.82s8.45,55.99,25.36,74.57c16.9,18.58,39.58,27.87,68.04,27.87s50.63-9.37,67.54-28.12Z"/>
    </g>
  </g>
</svg>